<?xml version="1.0" encoding="utf-8" standalone="no"?>
<!DOCTYPE svg PUBLIC "-//W3C//DTD SVG 1.1//EN"
  "http://www.w3.org/Graphics/SVG/1.1/DTD/svg11.dtd">
<svg xmlns:xlink="http://www.w3.org/1999/xlink" width="460.8pt" height="345.6pt" viewBox="0 0 460.8 345.6" xmlns="http://www.w3.org/2000/svg" version="1.1">
 <metadata>
  <rdf:RDF xmlns:dc="http://purl.org/dc/elements/1.1/" xmlns:cc="http://creativecommons.org/ns#" xmlns:rdf="http://www.w3.org/1999/02/22-rdf-syntax-ns#">
   <cc:Work>
    <dc:type rdf:resource="http://purl.org/dc/dcmitype/StillImage"/>
    <dc:date>2023-03-23T21:21:58.884663</dc:date>
    <dc:format>image/svg+xml</dc:format>
    <dc:creator>
     <cc:Agent>
      <dc:title>Matplotlib v3.7.1, https://matplotlib.org/</dc:title>
     </cc:Agent>
    </dc:creator>
   </cc:Work>
  </rdf:RDF>
 </metadata>
 <defs>
  <style type="text/css">*{stroke-linejoin: round; stroke-linecap: butt}</style>
 </defs>
 <g id="figure_1">
  <g id="patch_1">
   <path d="M 0 345.6 
L 460.8 345.6 
L 460.8 0 
L 0 0 
z
" style="fill: #ffffff"/>
  </g>
  <g id="axes_1">
   <g id="patch_2">
    <path d="M 57.6 307.584 
L 414.72 307.584 
L 414.72 41.472 
L 57.6 41.472 
z
" style="fill: #eaeaf2"/>
   </g>
   <g id="matplotlib.axis_1">
    <g id="xtick_1">
     <g id="line2d_1">
      <path d="M 66.67123 307.584 
L 66.67123 41.472 
" clip-path="url(#pb1ebd99a6d)" style="fill: none; stroke: #ffffff; stroke-linecap: round"/>
     </g>
     <g id="text_1">
      <!-- −1.5 -->
      <g style="fill: #262626" transform="translate(55.813886 324.957594) scale(0.11 -0.11)">
       <defs>
        <path id="ArialMT-2212" d="M 3381 1997 
L 356 1997 
L 356 2522 
L 3381 2522 
L 3381 1997 
z
" transform="scale(0.015625)"/>
        <path id="ArialMT-31" d="M 2384 0 
L 1822 0 
L 1822 3584 
Q 1619 3391 1289 3197 
Q 959 3003 697 2906 
L 697 3450 
Q 1169 3672 1522 3987 
Q 1875 4303 2022 4600 
L 2384 4600 
L 2384 0 
z
" transform="scale(0.015625)"/>
        <path id="ArialMT-2e" d="M 581 0 
L 581 641 
L 1222 641 
L 1222 0 
L 581 0 
z
" transform="scale(0.015625)"/>
        <path id="ArialMT-35" d="M 266 1200 
L 856 1250 
Q 922 819 1161 601 
Q 1400 384 1738 384 
Q 2144 384 2425 690 
Q 2706 997 2706 1503 
Q 2706 1984 2436 2262 
Q 2166 2541 1728 2541 
Q 1456 2541 1237 2417 
Q 1019 2294 894 2097 
L 366 2166 
L 809 4519 
L 3088 4519 
L 3088 3981 
L 1259 3981 
L 1013 2750 
Q 1425 3038 1878 3038 
Q 2478 3038 2890 2622 
Q 3303 2206 3303 1553 
Q 3303 931 2941 478 
Q 2500 -78 1738 -78 
Q 1113 -78 717 272 
Q 322 622 266 1200 
z
" transform="scale(0.015625)"/>
       </defs>
       <use xlink:href="#ArialMT-2212"/>
       <use xlink:href="#ArialMT-31" x="58.398438"/>
       <use xlink:href="#ArialMT-2e" x="114.013672"/>
       <use xlink:href="#ArialMT-35" x="141.796875"/>
      </g>
     </g>
    </g>
    <g id="xtick_2">
     <g id="line2d_2">
      <path d="M 126.350374 307.584 
L 126.350374 41.472 
" clip-path="url(#pb1ebd99a6d)" style="fill: none; stroke: #ffffff; stroke-linecap: round"/>
     </g>
     <g id="text_2">
      <!-- −1.0 -->
      <g style="fill: #262626" transform="translate(115.493031 324.957594) scale(0.11 -0.11)">
       <defs>
        <path id="ArialMT-30" d="M 266 2259 
Q 266 3072 433 3567 
Q 600 4063 929 4331 
Q 1259 4600 1759 4600 
Q 2128 4600 2406 4451 
Q 2684 4303 2865 4023 
Q 3047 3744 3150 3342 
Q 3253 2941 3253 2259 
Q 3253 1453 3087 958 
Q 2922 463 2592 192 
Q 2263 -78 1759 -78 
Q 1097 -78 719 397 
Q 266 969 266 2259 
z
M 844 2259 
Q 844 1131 1108 757 
Q 1372 384 1759 384 
Q 2147 384 2411 759 
Q 2675 1134 2675 2259 
Q 2675 3391 2411 3762 
Q 2147 4134 1753 4134 
Q 1366 4134 1134 3806 
Q 844 3388 844 2259 
z
" transform="scale(0.015625)"/>
       </defs>
       <use xlink:href="#ArialMT-2212"/>
       <use xlink:href="#ArialMT-31" x="58.398438"/>
       <use xlink:href="#ArialMT-2e" x="114.013672"/>
       <use xlink:href="#ArialMT-30" x="141.796875"/>
      </g>
     </g>
    </g>
    <g id="xtick_3">
     <g id="line2d_3">
      <path d="M 186.029519 307.584 
L 186.029519 41.472 
" clip-path="url(#pb1ebd99a6d)" style="fill: none; stroke: #ffffff; stroke-linecap: round"/>
     </g>
     <g id="text_3">
      <!-- −0.5 -->
      <g style="fill: #262626" transform="translate(175.172175 324.957594) scale(0.11 -0.11)">
       <use xlink:href="#ArialMT-2212"/>
       <use xlink:href="#ArialMT-30" x="58.398438"/>
       <use xlink:href="#ArialMT-2e" x="114.013672"/>
       <use xlink:href="#ArialMT-35" x="141.796875"/>
      </g>
     </g>
    </g>
    <g id="xtick_4">
     <g id="line2d_4">
      <path d="M 245.708663 307.584 
L 245.708663 41.472 
" clip-path="url(#pb1ebd99a6d)" style="fill: none; stroke: #ffffff; stroke-linecap: round"/>
     </g>
     <g id="text_4">
      <!-- 0.0 -->
      <g style="fill: #262626" transform="translate(238.063663 324.957594) scale(0.11 -0.11)">
       <use xlink:href="#ArialMT-30"/>
       <use xlink:href="#ArialMT-2e" x="55.615234"/>
       <use xlink:href="#ArialMT-30" x="83.398438"/>
      </g>
     </g>
    </g>
    <g id="xtick_5">
     <g id="line2d_5">
      <path d="M 305.387807 307.584 
L 305.387807 41.472 
" clip-path="url(#pb1ebd99a6d)" style="fill: none; stroke: #ffffff; stroke-linecap: round"/>
     </g>
     <g id="text_5">
      <!-- 0.5 -->
      <g style="fill: #262626" transform="translate(297.742807 324.957594) scale(0.11 -0.11)">
       <use xlink:href="#ArialMT-30"/>
       <use xlink:href="#ArialMT-2e" x="55.615234"/>
       <use xlink:href="#ArialMT-35" x="83.398438"/>
      </g>
     </g>
    </g>
    <g id="xtick_6">
     <g id="line2d_6">
      <path d="M 365.066952 307.584 
L 365.066952 41.472 
" clip-path="url(#pb1ebd99a6d)" style="fill: none; stroke: #ffffff; stroke-linecap: round"/>
     </g>
     <g id="text_6">
      <!-- 1.0 -->
      <g style="fill: #262626" transform="translate(357.421952 324.957594) scale(0.11 -0.11)">
       <use xlink:href="#ArialMT-31"/>
       <use xlink:href="#ArialMT-2e" x="55.615234"/>
       <use xlink:href="#ArialMT-30" x="83.398438"/>
      </g>
     </g>
    </g>
    <g id="text_7">
     <!-- l/d -->
     <g style="fill: #262626" transform="translate(229.823438 339.733219) scale(0.12 -0.12)">
      <defs>
       <path id="ArialMT-6c" d="M 409 0 
L 409 4581 
L 972 4581 
L 972 0 
L 409 0 
z
" transform="scale(0.015625)"/>
       <path id="ArialMT-2f" d="M 0 -78 
L 1328 4659 
L 1778 4659 
L 453 -78 
L 0 -78 
z
" transform="scale(0.015625)"/>
       <path id="ArialMT-64" d="M 2575 0 
L 2575 419 
Q 2259 -75 1647 -75 
Q 1250 -75 917 144 
Q 584 363 401 755 
Q 219 1147 219 1656 
Q 219 2153 384 2558 
Q 550 2963 881 3178 
Q 1213 3394 1622 3394 
Q 1922 3394 2156 3267 
Q 2391 3141 2538 2938 
L 2538 4581 
L 3097 4581 
L 3097 0 
L 2575 0 
z
M 797 1656 
Q 797 1019 1065 703 
Q 1334 388 1700 388 
Q 2069 388 2326 689 
Q 2584 991 2584 1609 
Q 2584 2291 2321 2609 
Q 2059 2928 1675 2928 
Q 1300 2928 1048 2622 
Q 797 2316 797 1656 
z
" transform="scale(0.015625)"/>
      </defs>
      <use xlink:href="#ArialMT-6c"/>
      <use xlink:href="#ArialMT-2f" x="22.216797"/>
      <use xlink:href="#ArialMT-64" x="50"/>
     </g>
    </g>
   </g>
   <g id="matplotlib.axis_2">
    <g id="ytick_1">
     <g id="line2d_7">
      <path d="M 57.6 305.106185 
L 414.72 305.106185 
" clip-path="url(#pb1ebd99a6d)" style="fill: none; stroke: #ffffff; stroke-linecap: round"/>
     </g>
     <g id="text_8">
      <!-- −0.05 -->
      <g style="fill: #262626" transform="translate(20.268281 309.042982) scale(0.11 -0.11)">
       <use xlink:href="#ArialMT-2212"/>
       <use xlink:href="#ArialMT-30" x="58.398438"/>
       <use xlink:href="#ArialMT-2e" x="114.013672"/>
       <use xlink:href="#ArialMT-30" x="141.796875"/>
       <use xlink:href="#ArialMT-35" x="197.412109"/>
      </g>
     </g>
    </g>
    <g id="ytick_2">
     <g id="line2d_8">
      <path d="M 57.6 263.97983 
L 414.72 263.97983 
" clip-path="url(#pb1ebd99a6d)" style="fill: none; stroke: #ffffff; stroke-linecap: round"/>
     </g>
     <g id="text_9">
      <!-- 0.00 -->
      <g style="fill: #262626" transform="translate(26.692969 267.916626) scale(0.11 -0.11)">
       <use xlink:href="#ArialMT-30"/>
       <use xlink:href="#ArialMT-2e" x="55.615234"/>
       <use xlink:href="#ArialMT-30" x="83.398438"/>
       <use xlink:href="#ArialMT-30" x="139.013672"/>
      </g>
     </g>
    </g>
    <g id="ytick_3">
     <g id="line2d_9">
      <path d="M 57.6 222.853474 
L 414.72 222.853474 
" clip-path="url(#pb1ebd99a6d)" style="fill: none; stroke: #ffffff; stroke-linecap: round"/>
     </g>
     <g id="text_10">
      <!-- 0.05 -->
      <g style="fill: #262626" transform="translate(26.692969 226.790271) scale(0.11 -0.11)">
       <use xlink:href="#ArialMT-30"/>
       <use xlink:href="#ArialMT-2e" x="55.615234"/>
       <use xlink:href="#ArialMT-30" x="83.398438"/>
       <use xlink:href="#ArialMT-35" x="139.013672"/>
      </g>
     </g>
    </g>
    <g id="ytick_4">
     <g id="line2d_10">
      <path d="M 57.6 181.727119 
L 414.72 181.727119 
" clip-path="url(#pb1ebd99a6d)" style="fill: none; stroke: #ffffff; stroke-linecap: round"/>
     </g>
     <g id="text_11">
      <!-- 0.10 -->
      <g style="fill: #262626" transform="translate(26.692969 185.663916) scale(0.11 -0.11)">
       <use xlink:href="#ArialMT-30"/>
       <use xlink:href="#ArialMT-2e" x="55.615234"/>
       <use xlink:href="#ArialMT-31" x="83.398438"/>
       <use xlink:href="#ArialMT-30" x="139.013672"/>
      </g>
     </g>
    </g>
    <g id="ytick_5">
     <g id="line2d_11">
      <path d="M 57.6 140.600764 
L 414.72 140.600764 
" clip-path="url(#pb1ebd99a6d)" style="fill: none; stroke: #ffffff; stroke-linecap: round"/>
     </g>
     <g id="text_12">
      <!-- 0.15 -->
      <g style="fill: #262626" transform="translate(26.692969 144.537561) scale(0.11 -0.11)">
       <use xlink:href="#ArialMT-30"/>
       <use xlink:href="#ArialMT-2e" x="55.615234"/>
       <use xlink:href="#ArialMT-31" x="83.398438"/>
       <use xlink:href="#ArialMT-35" x="139.013672"/>
      </g>
     </g>
    </g>
    <g id="ytick_6">
     <g id="line2d_12">
      <path d="M 57.6 99.474408 
L 414.72 99.474408 
" clip-path="url(#pb1ebd99a6d)" style="fill: none; stroke: #ffffff; stroke-linecap: round"/>
     </g>
     <g id="text_13">
      <!-- 0.20 -->
      <g style="fill: #262626" transform="translate(26.692969 103.411205) scale(0.11 -0.11)">
       <defs>
        <path id="ArialMT-32" d="M 3222 541 
L 3222 0 
L 194 0 
Q 188 203 259 391 
Q 375 700 629 1000 
Q 884 1300 1366 1694 
Q 2113 2306 2375 2664 
Q 2638 3022 2638 3341 
Q 2638 3675 2398 3904 
Q 2159 4134 1775 4134 
Q 1369 4134 1125 3890 
Q 881 3647 878 3216 
L 300 3275 
Q 359 3922 746 4261 
Q 1134 4600 1788 4600 
Q 2447 4600 2831 4234 
Q 3216 3869 3216 3328 
Q 3216 3053 3103 2787 
Q 2991 2522 2730 2228 
Q 2469 1934 1863 1422 
Q 1356 997 1212 845 
Q 1069 694 975 541 
L 3222 541 
z
" transform="scale(0.015625)"/>
       </defs>
       <use xlink:href="#ArialMT-30"/>
       <use xlink:href="#ArialMT-2e" x="55.615234"/>
       <use xlink:href="#ArialMT-32" x="83.398438"/>
       <use xlink:href="#ArialMT-30" x="139.013672"/>
      </g>
     </g>
    </g>
    <g id="ytick_7">
     <g id="line2d_13">
      <path d="M 57.6 58.348053 
L 414.72 58.348053 
" clip-path="url(#pb1ebd99a6d)" style="fill: none; stroke: #ffffff; stroke-linecap: round"/>
     </g>
     <g id="text_14">
      <!-- 0.25 -->
      <g style="fill: #262626" transform="translate(26.692969 62.28485) scale(0.11 -0.11)">
       <use xlink:href="#ArialMT-30"/>
       <use xlink:href="#ArialMT-2e" x="55.615234"/>
       <use xlink:href="#ArialMT-32" x="83.398438"/>
       <use xlink:href="#ArialMT-35" x="139.013672"/>
      </g>
     </g>
    </g>
    <g id="text_15">
     <!-- U$_2$/U$_1$(1-U$_2$/U$_1$) -->
     <g style="fill: #262626" transform="translate(13.628281 216.108) rotate(-90) scale(0.12 -0.12)">
      <defs>
       <path id="ArialMT-55" d="M 3500 4581 
L 4106 4581 
L 4106 1934 
Q 4106 1244 3950 837 
Q 3794 431 3386 176 
Q 2978 -78 2316 -78 
Q 1672 -78 1262 144 
Q 853 366 678 786 
Q 503 1206 503 1934 
L 503 4581 
L 1109 4581 
L 1109 1938 
Q 1109 1341 1220 1058 
Q 1331 775 1601 622 
Q 1872 469 2263 469 
Q 2931 469 3215 772 
Q 3500 1075 3500 1938 
L 3500 4581 
z
" transform="scale(0.015625)"/>
       <path id="DejaVuSans-32" d="M 1228 531 
L 3431 531 
L 3431 0 
L 469 0 
L 469 531 
Q 828 903 1448 1529 
Q 2069 2156 2228 2338 
Q 2531 2678 2651 2914 
Q 2772 3150 2772 3378 
Q 2772 3750 2511 3984 
Q 2250 4219 1831 4219 
Q 1534 4219 1204 4116 
Q 875 4013 500 3803 
L 500 4441 
Q 881 4594 1212 4672 
Q 1544 4750 1819 4750 
Q 2544 4750 2975 4387 
Q 3406 4025 3406 3419 
Q 3406 3131 3298 2873 
Q 3191 2616 2906 2266 
Q 2828 2175 2409 1742 
Q 1991 1309 1228 531 
z
" transform="scale(0.015625)"/>
       <path id="DejaVuSans-31" d="M 794 531 
L 1825 531 
L 1825 4091 
L 703 3866 
L 703 4441 
L 1819 4666 
L 2450 4666 
L 2450 531 
L 3481 531 
L 3481 0 
L 794 0 
L 794 531 
z
" transform="scale(0.015625)"/>
       <path id="ArialMT-28" d="M 1497 -1347 
Q 1031 -759 709 28 
Q 388 816 388 1659 
Q 388 2403 628 3084 
Q 909 3875 1497 4659 
L 1900 4659 
Q 1522 4009 1400 3731 
Q 1209 3300 1100 2831 
Q 966 2247 966 1656 
Q 966 153 1900 -1347 
L 1497 -1347 
z
" transform="scale(0.015625)"/>
       <path id="ArialMT-2d" d="M 203 1375 
L 203 1941 
L 1931 1941 
L 1931 1375 
L 203 1375 
z
" transform="scale(0.015625)"/>
       <path id="ArialMT-29" d="M 791 -1347 
L 388 -1347 
Q 1322 153 1322 1656 
Q 1322 2244 1188 2822 
Q 1081 3291 891 3722 
Q 769 4003 388 4659 
L 791 4659 
Q 1378 3875 1659 3084 
Q 1900 2403 1900 1659 
Q 1900 816 1576 28 
Q 1253 -759 791 -1347 
z
" transform="scale(0.015625)"/>
      </defs>
      <use xlink:href="#ArialMT-55" transform="translate(0 0.203125)"/>
      <use xlink:href="#DejaVuSans-32" transform="translate(73.173828 -16.203125) scale(0.7)"/>
      <use xlink:href="#ArialMT-2f" transform="translate(120.444336 0.203125)"/>
      <use xlink:href="#ArialMT-55" transform="translate(148.227539 0.203125)"/>
      <use xlink:href="#DejaVuSans-31" transform="translate(221.401367 -16.203125) scale(0.7)"/>
      <use xlink:href="#ArialMT-28" transform="translate(268.671875 0.203125)"/>
      <use xlink:href="#ArialMT-31" transform="translate(301.972656 0.203125)"/>
      <use xlink:href="#ArialMT-2d" transform="translate(357.587891 0.203125)"/>
      <use xlink:href="#ArialMT-55" transform="translate(390.888672 0.203125)"/>
      <use xlink:href="#DejaVuSans-32" transform="translate(464.0625 -16.203125) scale(0.7)"/>
      <use xlink:href="#ArialMT-2f" transform="translate(511.333008 0.203125)"/>
      <use xlink:href="#ArialMT-55" transform="translate(539.116211 0.203125)"/>
      <use xlink:href="#DejaVuSans-31" transform="translate(612.290039 -16.203125) scale(0.7)"/>
      <use xlink:href="#ArialMT-29" transform="translate(659.560547 0.203125)"/>
     </g>
    </g>
   </g>
   <g id="LineCollection_1">
    <path d="M 73.832727 286.366182 
L 73.832727 241.593477 
" clip-path="url(#pb1ebd99a6d)" style="fill: none; stroke: #1a1a1a; stroke-width: 0.5"/>
    <path d="M 92.930053 272.027261 
L 92.930053 228.747197 
" clip-path="url(#pb1ebd99a6d)" style="fill: none; stroke: #1a1a1a; stroke-width: 0.5"/>
    <path d="M 112.02738 230.499054 
L 112.02738 191.712129 
" clip-path="url(#pb1ebd99a6d)" style="fill: none; stroke: #1a1a1a; stroke-width: 0.5"/>
    <path d="M 131.124706 204.18986 
L 131.124706 168.431951 
" clip-path="url(#pb1ebd99a6d)" style="fill: none; stroke: #1a1a1a; stroke-width: 0.5"/>
    <path d="M 150.222032 144.258096 
L 150.222032 116.398197 
" clip-path="url(#pb1ebd99a6d)" style="fill: none; stroke: #1a1a1a; stroke-width: 0.5"/>
    <path d="M 169.319358 103.996116 
L 169.319358 83.26166 
" clip-path="url(#pb1ebd99a6d)" style="fill: none; stroke: #1a1a1a; stroke-width: 0.5"/>
    <path d="M 188.416684 73.384864 
L 188.416684 61.631546 
" clip-path="url(#pb1ebd99a6d)" style="fill: none; stroke: #1a1a1a; stroke-width: 0.5"/>
    <path d="M 207.514011 59.609658 
L 207.514011 57.528782 
" clip-path="url(#pb1ebd99a6d)" style="fill: none; stroke: #1a1a1a; stroke-width: 0.5"/>
    <path d="M 226.611337 59.725511 
L 226.611337 57.443453 
" clip-path="url(#pb1ebd99a6d)" style="fill: none; stroke: #1a1a1a; stroke-width: 0.5"/>
    <path d="M 245.708663 59.725511 
L 245.708663 57.443453 
" clip-path="url(#pb1ebd99a6d)" style="fill: none; stroke: #1a1a1a; stroke-width: 0.5"/>
    <path d="M 264.805989 59.609658 
L 264.805989 57.528782 
" clip-path="url(#pb1ebd99a6d)" style="fill: none; stroke: #1a1a1a; stroke-width: 0.5"/>
    <path d="M 283.903316 63.101193 
L 283.903316 57.341429 
" clip-path="url(#pb1ebd99a6d)" style="fill: none; stroke: #1a1a1a; stroke-width: 0.5"/>
    <path d="M 303.000642 87.250878 
L 303.000642 70.658351 
" clip-path="url(#pb1ebd99a6d)" style="fill: none; stroke: #1a1a1a; stroke-width: 0.5"/>
    <path d="M 322.097968 103.996116 
L 322.097968 83.26166 
" clip-path="url(#pb1ebd99a6d)" style="fill: none; stroke: #1a1a1a; stroke-width: 0.5"/>
    <path d="M 341.195294 155.489692 
L 341.195294 125.991636 
" clip-path="url(#pb1ebd99a6d)" style="fill: none; stroke: #1a1a1a; stroke-width: 0.5"/>
    <path d="M 360.29262 204.18986 
L 360.29262 168.431951 
" clip-path="url(#pb1ebd99a6d)" style="fill: none; stroke: #1a1a1a; stroke-width: 0.5"/>
    <path d="M 379.389947 257.928135 
L 379.389947 216.142099 
" clip-path="url(#pb1ebd99a6d)" style="fill: none; stroke: #1a1a1a; stroke-width: 0.5"/>
    <path d="M 398.487273 286.366182 
L 398.487273 241.593477 
" clip-path="url(#pb1ebd99a6d)" style="fill: none; stroke: #1a1a1a; stroke-width: 0.5"/>
   </g>
   <g id="line2d_14">
    <defs>
     <path id="m18091df99d" d="M 5 0 
L -5 -0 
" style="stroke: #1a1a1a"/>
    </defs>
    <g clip-path="url(#pb1ebd99a6d)">
     <use xlink:href="#m18091df99d" x="73.832727" y="286.366182" style="fill: #1a1a1a; stroke: #1a1a1a"/>
     <use xlink:href="#m18091df99d" x="92.930053" y="272.027261" style="fill: #1a1a1a; stroke: #1a1a1a"/>
     <use xlink:href="#m18091df99d" x="112.02738" y="230.499054" style="fill: #1a1a1a; stroke: #1a1a1a"/>
     <use xlink:href="#m18091df99d" x="131.124706" y="204.18986" style="fill: #1a1a1a; stroke: #1a1a1a"/>
     <use xlink:href="#m18091df99d" x="150.222032" y="144.258096" style="fill: #1a1a1a; stroke: #1a1a1a"/>
     <use xlink:href="#m18091df99d" x="169.319358" y="103.996116" style="fill: #1a1a1a; stroke: #1a1a1a"/>
     <use xlink:href="#m18091df99d" x="188.416684" y="73.384864" style="fill: #1a1a1a; stroke: #1a1a1a"/>
     <use xlink:href="#m18091df99d" x="207.514011" y="59.609658" style="fill: #1a1a1a; stroke: #1a1a1a"/>
     <use xlink:href="#m18091df99d" x="226.611337" y="59.725511" style="fill: #1a1a1a; stroke: #1a1a1a"/>
     <use xlink:href="#m18091df99d" x="245.708663" y="59.725511" style="fill: #1a1a1a; stroke: #1a1a1a"/>
     <use xlink:href="#m18091df99d" x="264.805989" y="59.609658" style="fill: #1a1a1a; stroke: #1a1a1a"/>
     <use xlink:href="#m18091df99d" x="283.903316" y="63.101193" style="fill: #1a1a1a; stroke: #1a1a1a"/>
     <use xlink:href="#m18091df99d" x="303.000642" y="87.250878" style="fill: #1a1a1a; stroke: #1a1a1a"/>
     <use xlink:href="#m18091df99d" x="322.097968" y="103.996116" style="fill: #1a1a1a; stroke: #1a1a1a"/>
     <use xlink:href="#m18091df99d" x="341.195294" y="155.489692" style="fill: #1a1a1a; stroke: #1a1a1a"/>
     <use xlink:href="#m18091df99d" x="360.29262" y="204.18986" style="fill: #1a1a1a; stroke: #1a1a1a"/>
     <use xlink:href="#m18091df99d" x="379.389947" y="257.928135" style="fill: #1a1a1a; stroke: #1a1a1a"/>
     <use xlink:href="#m18091df99d" x="398.487273" y="286.366182" style="fill: #1a1a1a; stroke: #1a1a1a"/>
    </g>
   </g>
   <g id="line2d_15">
    <g clip-path="url(#pb1ebd99a6d)">
     <use xlink:href="#m18091df99d" x="73.832727" y="241.593477" style="fill: #1a1a1a; stroke: #1a1a1a"/>
     <use xlink:href="#m18091df99d" x="92.930053" y="228.747197" style="fill: #1a1a1a; stroke: #1a1a1a"/>
     <use xlink:href="#m18091df99d" x="112.02738" y="191.712129" style="fill: #1a1a1a; stroke: #1a1a1a"/>
     <use xlink:href="#m18091df99d" x="131.124706" y="168.431951" style="fill: #1a1a1a; stroke: #1a1a1a"/>
     <use xlink:href="#m18091df99d" x="150.222032" y="116.398197" style="fill: #1a1a1a; stroke: #1a1a1a"/>
     <use xlink:href="#m18091df99d" x="169.319358" y="83.26166" style="fill: #1a1a1a; stroke: #1a1a1a"/>
     <use xlink:href="#m18091df99d" x="188.416684" y="61.631546" style="fill: #1a1a1a; stroke: #1a1a1a"/>
     <use xlink:href="#m18091df99d" x="207.514011" y="57.528782" style="fill: #1a1a1a; stroke: #1a1a1a"/>
     <use xlink:href="#m18091df99d" x="226.611337" y="57.443453" style="fill: #1a1a1a; stroke: #1a1a1a"/>
     <use xlink:href="#m18091df99d" x="245.708663" y="57.443453" style="fill: #1a1a1a; stroke: #1a1a1a"/>
     <use xlink:href="#m18091df99d" x="264.805989" y="57.528782" style="fill: #1a1a1a; stroke: #1a1a1a"/>
     <use xlink:href="#m18091df99d" x="283.903316" y="57.341429" style="fill: #1a1a1a; stroke: #1a1a1a"/>
     <use xlink:href="#m18091df99d" x="303.000642" y="70.658351" style="fill: #1a1a1a; stroke: #1a1a1a"/>
     <use xlink:href="#m18091df99d" x="322.097968" y="83.26166" style="fill: #1a1a1a; stroke: #1a1a1a"/>
     <use xlink:href="#m18091df99d" x="341.195294" y="125.991636" style="fill: #1a1a1a; stroke: #1a1a1a"/>
     <use xlink:href="#m18091df99d" x="360.29262" y="168.431951" style="fill: #1a1a1a; stroke: #1a1a1a"/>
     <use xlink:href="#m18091df99d" x="379.389947" y="216.142099" style="fill: #1a1a1a; stroke: #1a1a1a"/>
     <use xlink:href="#m18091df99d" x="398.487273" y="241.593477" style="fill: #1a1a1a; stroke: #1a1a1a"/>
    </g>
   </g>
   <g id="line2d_16">
    <path d="M 73.832727 295.488 
L 92.930053 243.269107 
L 112.02738 197.384938 
L 131.124706 157.835491 
L 150.222032 124.620768 
L 169.319358 97.740768 
L 188.416684 77.195491 
L 207.514011 62.984938 
L 226.611337 55.109107 
L 245.708663 53.568 
L 264.805989 58.361616 
L 283.903316 69.489955 
L 303.000642 86.953017 
L 322.097968 110.750803 
L 341.195294 140.883311 
L 360.29262 177.350543 
L 379.389947 220.152498 
L 398.487273 269.289176 
" clip-path="url(#pb1ebd99a6d)" style="fill: none; stroke: #1a1a1a; stroke-width: 1.5; stroke-linecap: round"/>
   </g>
   <g id="line2d_17">
    <defs>
     <path id="ma93e63ed45" d="M -2.5 2.5 
L 2.5 2.5 
L 2.5 -2.5 
L -2.5 -2.5 
z
" style="stroke: #1a1a1a; stroke-linejoin: miter"/>
    </defs>
    <g clip-path="url(#pb1ebd99a6d)">
     <use xlink:href="#ma93e63ed45" x="73.832727" y="263.97983" style="fill: #ffa500; stroke: #1a1a1a; stroke-linejoin: miter"/>
     <use xlink:href="#ma93e63ed45" x="92.930053" y="250.387229" style="fill: #ffa500; stroke: #1a1a1a; stroke-linejoin: miter"/>
     <use xlink:href="#ma93e63ed45" x="112.02738" y="211.105591" style="fill: #ffa500; stroke: #1a1a1a; stroke-linejoin: miter"/>
     <use xlink:href="#ma93e63ed45" x="131.124706" y="186.310905" style="fill: #ffa500; stroke: #1a1a1a; stroke-linejoin: miter"/>
     <use xlink:href="#ma93e63ed45" x="150.222032" y="130.328147" style="fill: #ffa500; stroke: #1a1a1a; stroke-linejoin: miter"/>
     <use xlink:href="#ma93e63ed45" x="169.319358" y="93.628888" style="fill: #ffa500; stroke: #1a1a1a; stroke-linejoin: miter"/>
     <use xlink:href="#ma93e63ed45" x="188.416684" y="67.508205" style="fill: #ffa500; stroke: #1a1a1a; stroke-linejoin: miter"/>
     <use xlink:href="#ma93e63ed45" x="207.514011" y="58.56922" style="fill: #ffa500; stroke: #1a1a1a; stroke-linejoin: miter"/>
     <use xlink:href="#ma93e63ed45" x="226.611337" y="58.584482" style="fill: #ffa500; stroke: #1a1a1a; stroke-linejoin: miter"/>
     <use xlink:href="#ma93e63ed45" x="245.708663" y="58.584482" style="fill: #ffa500; stroke: #1a1a1a; stroke-linejoin: miter"/>
     <use xlink:href="#ma93e63ed45" x="264.805989" y="58.56922" style="fill: #ffa500; stroke: #1a1a1a; stroke-linejoin: miter"/>
     <use xlink:href="#ma93e63ed45" x="283.903316" y="60.221311" style="fill: #ffa500; stroke: #1a1a1a; stroke-linejoin: miter"/>
     <use xlink:href="#ma93e63ed45" x="303.000642" y="78.954615" style="fill: #ffa500; stroke: #1a1a1a; stroke-linejoin: miter"/>
     <use xlink:href="#ma93e63ed45" x="322.097968" y="93.628888" style="fill: #ffa500; stroke: #1a1a1a; stroke-linejoin: miter"/>
     <use xlink:href="#ma93e63ed45" x="341.195294" y="140.740664" style="fill: #ffa500; stroke: #1a1a1a; stroke-linejoin: miter"/>
     <use xlink:href="#ma93e63ed45" x="360.29262" y="186.310905" style="fill: #ffa500; stroke: #1a1a1a; stroke-linejoin: miter"/>
     <use xlink:href="#ma93e63ed45" x="379.389947" y="237.035117" style="fill: #ffa500; stroke: #1a1a1a; stroke-linejoin: miter"/>
     <use xlink:href="#ma93e63ed45" x="398.487273" y="263.97983" style="fill: #ffa500; stroke: #1a1a1a; stroke-linejoin: miter"/>
    </g>
   </g>
   <g id="patch_3">
    <path d="M 57.6 307.584 
L 57.6 41.472 
" style="fill: none; stroke: #ffffff; stroke-width: 1.25; stroke-linejoin: miter; stroke-linecap: square"/>
   </g>
   <g id="patch_4">
    <path d="M 414.72 307.584 
L 414.72 41.472 
" style="fill: none; stroke: #ffffff; stroke-width: 1.25; stroke-linejoin: miter; stroke-linecap: square"/>
   </g>
   <g id="patch_5">
    <path d="M 57.6 307.584 
L 414.72 307.584 
" style="fill: none; stroke: #ffffff; stroke-width: 1.25; stroke-linejoin: miter; stroke-linecap: square"/>
   </g>
   <g id="patch_6">
    <path d="M 57.6 41.472 
L 414.72 41.472 
" style="fill: none; stroke: #ffffff; stroke-width: 1.25; stroke-linejoin: miter; stroke-linecap: square"/>
   </g>
   <g id="text_16">
    <!-- U$_2$/U$_1$(1-U$_2$/U$_1$) vs l/d -->
    <g style="fill: #262626" transform="translate(178.86 35.472) scale(0.12 -0.12)">
     <defs>
      <path id="ArialMT-20" transform="scale(0.015625)"/>
      <path id="ArialMT-76" d="M 1344 0 
L 81 3319 
L 675 3319 
L 1388 1331 
Q 1503 1009 1600 663 
Q 1675 925 1809 1294 
L 2547 3319 
L 3125 3319 
L 1869 0 
L 1344 0 
z
" transform="scale(0.015625)"/>
      <path id="ArialMT-73" d="M 197 991 
L 753 1078 
Q 800 744 1014 566 
Q 1228 388 1613 388 
Q 2000 388 2187 545 
Q 2375 703 2375 916 
Q 2375 1106 2209 1216 
Q 2094 1291 1634 1406 
Q 1016 1563 777 1677 
Q 538 1791 414 1992 
Q 291 2194 291 2438 
Q 291 2659 392 2848 
Q 494 3038 669 3163 
Q 800 3259 1026 3326 
Q 1253 3394 1513 3394 
Q 1903 3394 2198 3281 
Q 2494 3169 2634 2976 
Q 2775 2784 2828 2463 
L 2278 2388 
Q 2241 2644 2061 2787 
Q 1881 2931 1553 2931 
Q 1166 2931 1000 2803 
Q 834 2675 834 2503 
Q 834 2394 903 2306 
Q 972 2216 1119 2156 
Q 1203 2125 1616 2013 
Q 2213 1853 2448 1751 
Q 2684 1650 2818 1456 
Q 2953 1263 2953 975 
Q 2953 694 2789 445 
Q 2625 197 2315 61 
Q 2006 -75 1616 -75 
Q 969 -75 630 194 
Q 291 463 197 991 
z
" transform="scale(0.015625)"/>
     </defs>
     <use xlink:href="#ArialMT-55" transform="translate(0 0.203125)"/>
     <use xlink:href="#DejaVuSans-32" transform="translate(73.173828 -16.203125) scale(0.7)"/>
     <use xlink:href="#ArialMT-2f" transform="translate(120.444336 0.203125)"/>
     <use xlink:href="#ArialMT-55" transform="translate(148.227539 0.203125)"/>
     <use xlink:href="#DejaVuSans-31" transform="translate(221.401367 -16.203125) scale(0.7)"/>
     <use xlink:href="#ArialMT-28" transform="translate(268.671875 0.203125)"/>
     <use xlink:href="#ArialMT-31" transform="translate(301.972656 0.203125)"/>
     <use xlink:href="#ArialMT-2d" transform="translate(357.587891 0.203125)"/>
     <use xlink:href="#ArialMT-55" transform="translate(390.888672 0.203125)"/>
     <use xlink:href="#DejaVuSans-32" transform="translate(464.0625 -16.203125) scale(0.7)"/>
     <use xlink:href="#ArialMT-2f" transform="translate(511.333008 0.203125)"/>
     <use xlink:href="#ArialMT-55" transform="translate(539.116211 0.203125)"/>
     <use xlink:href="#DejaVuSans-31" transform="translate(612.290039 -16.203125) scale(0.7)"/>
     <use xlink:href="#ArialMT-29" transform="translate(659.560547 0.203125)"/>
     <use xlink:href="#ArialMT-20" transform="translate(692.861328 0.203125)"/>
     <use xlink:href="#ArialMT-76" transform="translate(720.644531 0.203125)"/>
     <use xlink:href="#ArialMT-73" transform="translate(770.644531 0.203125)"/>
     <use xlink:href="#ArialMT-20" transform="translate(820.644531 0.203125)"/>
     <use xlink:href="#ArialMT-6c" transform="translate(848.427734 0.203125)"/>
     <use xlink:href="#ArialMT-2f" transform="translate(870.644531 0.203125)"/>
     <use xlink:href="#ArialMT-64" transform="translate(898.427734 0.203125)"/>
    </g>
   </g>
   <g id="legend_1">
    <g id="patch_7">
     <path d="M 153.055 302.084 
L 319.265 302.084 
Q 321.465 302.084 321.465 299.884 
L 321.465 271.21525 
Q 321.465 269.01525 319.265 269.01525 
L 153.055 269.01525 
Q 150.855 269.01525 150.855 271.21525 
L 150.855 299.884 
Q 150.855 302.084 153.055 302.084 
z
" style="fill: #eaeaf2; opacity: 0.8; stroke: #cccccc; stroke-linejoin: miter"/>
    </g>
    <g id="line2d_18">
     <path d="M 155.255 285.636422 
L 166.255 285.636422 
L 177.255 285.636422 
" style="fill: none; stroke: #1a1a1a; stroke-width: 1.5; stroke-linecap: round"/>
    </g>
    <g id="text_17">
     <!-- y = -0.15x$^2$ + -0.01x + 0.26 -->
     <g style="fill: #262626" transform="translate(186.055 283.42525) scale(0.11 -0.11)">
      <defs>
       <path id="ArialMT-79" d="M 397 -1278 
L 334 -750 
Q 519 -800 656 -800 
Q 844 -800 956 -737 
Q 1069 -675 1141 -563 
Q 1194 -478 1313 -144 
Q 1328 -97 1363 -6 
L 103 3319 
L 709 3319 
L 1400 1397 
Q 1534 1031 1641 628 
Q 1738 1016 1872 1384 
L 2581 3319 
L 3144 3319 
L 1881 -56 
Q 1678 -603 1566 -809 
Q 1416 -1088 1222 -1217 
Q 1028 -1347 759 -1347 
Q 597 -1347 397 -1278 
z
" transform="scale(0.015625)"/>
       <path id="ArialMT-3d" d="M 3381 2694 
L 356 2694 
L 356 3219 
L 3381 3219 
L 3381 2694 
z
M 3381 1303 
L 356 1303 
L 356 1828 
L 3381 1828 
L 3381 1303 
z
" transform="scale(0.015625)"/>
       <path id="ArialMT-78" d="M 47 0 
L 1259 1725 
L 138 3319 
L 841 3319 
L 1350 2541 
Q 1494 2319 1581 2169 
Q 1719 2375 1834 2534 
L 2394 3319 
L 3066 3319 
L 1919 1756 
L 3153 0 
L 2463 0 
L 1781 1031 
L 1600 1309 
L 728 0 
L 47 0 
z
" transform="scale(0.015625)"/>
       <path id="ArialMT-2b" d="M 1603 741 
L 1603 1997 
L 356 1997 
L 356 2522 
L 1603 2522 
L 1603 3769 
L 2134 3769 
L 2134 2522 
L 3381 2522 
L 3381 1997 
L 2134 1997 
L 2134 741 
L 1603 741 
z
" transform="scale(0.015625)"/>
       <path id="ArialMT-36" d="M 3184 3459 
L 2625 3416 
Q 2550 3747 2413 3897 
Q 2184 4138 1850 4138 
Q 1581 4138 1378 3988 
Q 1113 3794 959 3422 
Q 806 3050 800 2363 
Q 1003 2672 1297 2822 
Q 1591 2972 1913 2972 
Q 2475 2972 2870 2558 
Q 3266 2144 3266 1488 
Q 3266 1056 3080 686 
Q 2894 316 2569 119 
Q 2244 -78 1831 -78 
Q 1128 -78 684 439 
Q 241 956 241 2144 
Q 241 3472 731 4075 
Q 1159 4600 1884 4600 
Q 2425 4600 2770 4297 
Q 3116 3994 3184 3459 
z
M 888 1484 
Q 888 1194 1011 928 
Q 1134 663 1356 523 
Q 1578 384 1822 384 
Q 2178 384 2434 671 
Q 2691 959 2691 1453 
Q 2691 1928 2437 2201 
Q 2184 2475 1800 2475 
Q 1419 2475 1153 2201 
Q 888 1928 888 1484 
z
" transform="scale(0.015625)"/>
      </defs>
      <use xlink:href="#ArialMT-79" transform="translate(0 0.765625)"/>
      <use xlink:href="#ArialMT-20" transform="translate(50 0.765625)"/>
      <use xlink:href="#ArialMT-3d" transform="translate(77.783203 0.765625)"/>
      <use xlink:href="#ArialMT-20" transform="translate(136.181641 0.765625)"/>
      <use xlink:href="#ArialMT-2d" transform="translate(163.964844 0.765625)"/>
      <use xlink:href="#ArialMT-30" transform="translate(197.265625 0.765625)"/>
      <use xlink:href="#ArialMT-2e" transform="translate(252.880859 0.765625)"/>
      <use xlink:href="#ArialMT-31" transform="translate(280.664062 0.765625)"/>
      <use xlink:href="#ArialMT-35" transform="translate(336.279297 0.765625)"/>
      <use xlink:href="#ArialMT-78" transform="translate(391.894531 0.765625)"/>
      <use xlink:href="#DejaVuSans-32" transform="translate(442.851562 39.046875) scale(0.7)"/>
      <use xlink:href="#ArialMT-20" transform="translate(490.12207 0.765625)"/>
      <use xlink:href="#ArialMT-2b" transform="translate(517.905273 0.765625)"/>
      <use xlink:href="#ArialMT-20" transform="translate(576.303711 0.765625)"/>
      <use xlink:href="#ArialMT-2d" transform="translate(604.086914 0.765625)"/>
      <use xlink:href="#ArialMT-30" transform="translate(637.387695 0.765625)"/>
      <use xlink:href="#ArialMT-2e" transform="translate(693.00293 0.765625)"/>
      <use xlink:href="#ArialMT-30" transform="translate(720.786133 0.765625)"/>
      <use xlink:href="#ArialMT-31" transform="translate(776.401367 0.765625)"/>
      <use xlink:href="#ArialMT-78" transform="translate(832.016602 0.765625)"/>
      <use xlink:href="#ArialMT-20" transform="translate(882.016602 0.765625)"/>
      <use xlink:href="#ArialMT-2b" transform="translate(909.799805 0.765625)"/>
      <use xlink:href="#ArialMT-20" transform="translate(968.198242 0.765625)"/>
      <use xlink:href="#ArialMT-30" transform="translate(995.981445 0.765625)"/>
      <use xlink:href="#ArialMT-2e" transform="translate(1051.59668 0.765625)"/>
      <use xlink:href="#ArialMT-32" transform="translate(1079.379883 0.765625)"/>
      <use xlink:href="#ArialMT-36" transform="translate(1134.995117 0.765625)"/>
     </g>
     <!-- R$^2$ = 0.971 -->
     <g style="fill: #262626" transform="translate(186.055 295.49775) scale(0.11 -0.11)">
      <defs>
       <path id="ArialMT-52" d="M 503 0 
L 503 4581 
L 2534 4581 
Q 3147 4581 3465 4457 
Q 3784 4334 3975 4021 
Q 4166 3709 4166 3331 
Q 4166 2844 3850 2509 
Q 3534 2175 2875 2084 
Q 3116 1969 3241 1856 
Q 3506 1613 3744 1247 
L 4541 0 
L 3778 0 
L 3172 953 
Q 2906 1366 2734 1584 
Q 2563 1803 2427 1890 
Q 2291 1978 2150 2013 
Q 2047 2034 1813 2034 
L 1109 2034 
L 1109 0 
L 503 0 
z
M 1109 2559 
L 2413 2559 
Q 2828 2559 3062 2645 
Q 3297 2731 3419 2920 
Q 3541 3109 3541 3331 
Q 3541 3656 3305 3865 
Q 3069 4075 2559 4075 
L 1109 4075 
L 1109 2559 
z
" transform="scale(0.015625)"/>
       <path id="ArialMT-39" d="M 350 1059 
L 891 1109 
Q 959 728 1153 556 
Q 1347 384 1650 384 
Q 1909 384 2104 503 
Q 2300 622 2425 820 
Q 2550 1019 2634 1356 
Q 2719 1694 2719 2044 
Q 2719 2081 2716 2156 
Q 2547 1888 2255 1720 
Q 1963 1553 1622 1553 
Q 1053 1553 659 1965 
Q 266 2378 266 3053 
Q 266 3750 677 4175 
Q 1088 4600 1706 4600 
Q 2153 4600 2523 4359 
Q 2894 4119 3086 3673 
Q 3278 3228 3278 2384 
Q 3278 1506 3087 986 
Q 2897 466 2520 194 
Q 2144 -78 1638 -78 
Q 1100 -78 759 220 
Q 419 519 350 1059 
z
M 2653 3081 
Q 2653 3566 2395 3850 
Q 2138 4134 1775 4134 
Q 1400 4134 1122 3828 
Q 844 3522 844 3034 
Q 844 2597 1108 2323 
Q 1372 2050 1759 2050 
Q 2150 2050 2401 2323 
Q 2653 2597 2653 3081 
z
" transform="scale(0.015625)"/>
       <path id="ArialMT-37" d="M 303 3981 
L 303 4522 
L 3269 4522 
L 3269 4084 
Q 2831 3619 2401 2847 
Q 1972 2075 1738 1259 
Q 1569 684 1522 0 
L 944 0 
Q 953 541 1156 1306 
Q 1359 2072 1739 2783 
Q 2119 3494 2547 3981 
L 303 3981 
z
" transform="scale(0.015625)"/>
      </defs>
      <use xlink:href="#ArialMT-52" transform="translate(0 0.765625)"/>
      <use xlink:href="#DejaVuSans-32" transform="translate(73.173828 39.046875) scale(0.7)"/>
      <use xlink:href="#ArialMT-20" transform="translate(120.444336 0.765625)"/>
      <use xlink:href="#ArialMT-3d" transform="translate(148.227539 0.765625)"/>
      <use xlink:href="#ArialMT-20" transform="translate(206.625977 0.765625)"/>
      <use xlink:href="#ArialMT-30" transform="translate(234.40918 0.765625)"/>
      <use xlink:href="#ArialMT-2e" transform="translate(290.024414 0.765625)"/>
      <use xlink:href="#ArialMT-39" transform="translate(317.807617 0.765625)"/>
      <use xlink:href="#ArialMT-37" transform="translate(373.422852 0.765625)"/>
      <use xlink:href="#ArialMT-31" transform="translate(429.038086 0.765625)"/>
     </g>
    </g>
   </g>
  </g>
 </g>
 <defs>
  <clipPath id="pb1ebd99a6d">
   <rect x="57.6" y="41.472" width="357.12" height="266.112"/>
  </clipPath>
 </defs>
</svg>
